mtllib sodacan.mtl
o Cylinder
v 0.000000 -1.000000 -1.000000
v 0.000000 1.000000 -1.000000
v 0.500000 -1.000000 -0.866025
v 0.500000 1.000000 -0.866025
v 0.866025 -1.000000 -0.500000
v 0.866025 1.000000 -0.500000
v 1.000000 -1.000000 0.000000
v 1.000000 1.000000 0.000000
v 0.866025 -1.000000 0.500000
v 0.866025 1.000000 0.500000
v 0.500000 -1.000000 0.866025
v 0.500000 1.000000 0.866025
v 0.000000 -1.000000 1.000000
v 0.000000 1.000000 1.000000
v -0.500000 -1.000000 0.866026
v -0.500000 1.000000 0.866026
v -0.866025 -1.000000 0.500000
v -0.866025 1.000000 0.500000
v -1.000000 -1.000000 0.000000
v -1.000000 1.000000 0.000000
v -0.866026 -1.000000 -0.499999
v -0.866026 1.000000 -0.499999
v -0.500001 -1.000000 -0.866025
v -0.500001 1.000000 -0.866025
v 0.490259 1.079003 -0.849154
v 0.000000 1.079003 -0.980519
v 0.849154 1.079003 -0.490259
v 0.980519 1.079003 0.000000
v 0.849154 1.079003 0.490260
v 0.490260 1.079003 0.849154
v 0.000000 1.079003 0.980519
v -0.490259 1.079003 0.849154
v -0.849154 1.079003 0.490260
v -0.980519 1.079003 0.000000
v -0.849155 1.079003 -0.490259
v -0.490260 1.079003 -0.849154
v 0.355024 1.394391 -0.614920
v 0.000000 1.394391 -0.710048
v 0.614920 1.394391 -0.355024
v 0.710048 1.394391 0.000000
v 0.614920 1.394391 0.355024
v 0.355024 1.394391 0.614920
v 0.000000 1.394391 0.710048
v -0.355024 1.394391 0.614920
v -0.614920 1.394391 0.355024
v -0.710048 1.394391 0.000000
v -0.614920 1.394391 -0.355024
v -0.355024 1.394391 -0.614919
v 0.355024 1.446890 -0.614920
v 0.000000 1.446890 -0.710048
v 0.614920 1.446890 -0.355024
v 0.710048 1.446890 0.000000
v 0.614920 1.446890 0.355024
v 0.355024 1.446890 0.614920
v 0.000000 1.446890 0.710048
v -0.355024 1.446890 0.614920
v -0.614920 1.446890 0.355024
v -0.710048 1.446890 0.000000
v -0.614920 1.446890 -0.355024
v -0.355024 1.446890 -0.614919
v 0.335465 1.446733 -0.581043
v 0.000000 1.446733 -0.670931
v 0.581043 1.446733 -0.335465
v 0.670931 1.446733 0.000000
v 0.581043 1.446733 0.335466
v 0.335465 1.446733 0.581043
v 0.000000 1.446733 0.670931
v -0.335465 1.446733 0.581043
v -0.581043 1.446733 0.335466
v -0.670931 1.446733 0.000000
v -0.581043 1.446733 -0.335465
v -0.335466 1.446733 -0.581043
v 0.335465 1.395614 -0.581043
v 0.000000 1.395614 -0.670931
v 0.581043 1.395614 -0.335465
v 0.670931 1.395614 0.000000
v 0.581043 1.395614 0.335466
v 0.335465 1.395614 0.581043
v 0.000000 1.395614 0.670931
v -0.335465 1.395614 0.581043
v -0.581043 1.395614 0.335466
v -0.670931 1.395614 0.000000
v -0.581043 1.395614 -0.335465
v -0.335466 1.395614 -0.581043
v 0.000000 -1.062268 -0.947247
v 0.473623 -1.062268 -0.820340
v 0.820340 -1.062268 -0.473623
v 0.947247 -1.062268 0.000000
v 0.820340 -1.062268 0.473623
v 0.473623 -1.062268 0.820340
v 0.000000 -1.062268 0.947247
v -0.473623 -1.062268 0.820340
v -0.820339 -1.062268 0.473624
v -0.947247 -1.062268 0.000000
v -0.820340 -1.062268 -0.473623
v -0.473624 -1.062268 -0.820339
v 0.000000 -1.204314 -0.683657
v 0.341829 -1.204314 -0.592065
v 0.592065 -1.204314 -0.341829
v 0.683657 -1.204314 0.000000
v 0.592065 -1.204314 0.341829
v 0.341829 -1.204314 0.592065
v 0.000000 -1.204314 0.683657
v -0.341829 -1.204314 0.592065
v -0.592064 -1.204314 0.341829
v -0.683657 -1.204314 0.000000
v -0.592065 -1.204314 -0.341828
v -0.341829 -1.204314 -0.592064
vt 1.000000 0.500000
vt 1.000000 1.000000
vt 0.916667 1.000000
vt 0.916667 0.500000
vt 0.833333 1.000000
vt 0.833333 0.500000
vt 0.750000 1.000000
vt 0.750000 0.500000
vt 0.666667 1.000000
vt 0.666667 0.500000
vt 0.583333 1.000000
vt 0.583333 0.500000
vt 0.500000 1.000000
vt 0.500000 0.500000
vt 0.416667 1.000000
vt 0.416667 0.500000
vt 0.333333 1.000000
vt 0.333333 0.500000
vt 0.250000 1.000000
vt 0.250000 0.500000
vt 0.166667 1.000000
vt 0.166667 0.500000
vt 0.697109 0.148761
vt 0.703534 0.186054
vt 0.680151 0.186473
vt 0.673852 0.149907
vt 0.083333 1.000000
vt 0.083333 0.500000
vt 0.000000 1.000000
vt 0.000000 0.500000
vt 0.487049 0.173828
vt 0.356545 0.195359
vt 0.352570 0.191120
vt 0.476189 0.170725
vt 0.868055 0.228697
vt 0.868055 0.186473
vt 0.966021 0.192297
vt 0.966021 0.222873
vt 0.838247 0.148761
vt 0.844672 0.186054
vt 0.821290 0.186473
vt 0.814990 0.149907
vt 0.703534 0.229116
vt 0.680151 0.228697
vt 0.697109 0.266409
vt 0.673851 0.265264
vt 0.512042 0.195359
vt 0.518467 0.232652
vt 0.495084 0.233072
vt 0.488784 0.196505
vt 0.518467 0.275715
vt 0.495084 0.275295
vt 0.512042 0.313008
vt 0.488784 0.311862
vt 0.851097 0.266409
vt 0.844672 0.229116
vt 0.874355 0.265263
vt 0.844672 0.186054
vt 0.844672 0.229116
vt 0.838247 0.266410
vt 0.814990 0.265264
vt 0.821290 0.228697
vt 0.851097 0.148761
vt 0.874355 0.149907
vt 0.397118 0.238895
vt 0.397118 0.269472
vt 0.381891 0.269472
vt 0.381891 0.238895
vt 0.582185 0.192297
vt 0.577623 0.165817
vt 0.723324 0.222873
vt 0.723324 0.192297
vt 0.392556 0.212416
vt 0.970583 0.249353
vt 0.718762 0.249353
vt 0.718762 0.165817
vt 0.577623 0.249353
vt 0.582185 0.222873
vt 0.392556 0.295952
vt 0.970583 0.165817
vt 0.615895 0.133473
vt 0.562396 0.106993
vt 0.573395 0.106151
vt 0.623948 0.131172
vt 0.981248 0.192297
vt 0.981248 0.222873
vt 0.566958 0.192297
vt 0.562396 0.165817
vt 0.708096 0.222873
vt 0.708096 0.192297
vt 0.377329 0.212416
vt 0.985810 0.249353
vt 0.703534 0.249353
vt 0.703534 0.165817
vt 0.562396 0.249353
vt 0.566958 0.222873
vt 0.377329 0.295952
vt 0.985810 0.165817
vt 0.537605 0.249272
vt 0.537605 0.220380
vt 0.552433 0.220380
vt 0.552433 0.249272
vt 0.615895 0.049937
vt 0.708560 0.034648
vt 0.711507 0.037792
vt 0.623948 0.052238
vt 0.961724 0.106993
vt 0.908224 0.133473
vt 0.900171 0.131172
vt 0.950724 0.106151
vt 0.908224 0.049937
vt 0.961724 0.076416
vt 0.950724 0.077259
vt 0.900171 0.052238
vt 0.708560 0.148761
vt 0.711507 0.145618
vt 0.562396 0.076416
vt 0.573395 0.077259
vt 0.815559 0.034648
vt 0.812612 0.037792
vt 0.815559 0.148761
vt 0.812612 0.145618
vt 0.326776 0.209805
vt 0.377329 0.234826
vt 0.377329 0.263718
vt 0.326776 0.288739
vt 0.239217 0.303185
vt 0.138112 0.303185
vt 0.050552 0.288739
vt 0.000000 0.263718
vt 0.000000 0.234826
vt 0.050552 0.209805
vt 0.138112 0.195359
vt 0.239217 0.195359
vt 0.980862 0.059669
vt 0.980862 0.088561
vt 0.966034 0.088561
vt 0.966034 0.059669
vt 0.980862 0.088561
vt 0.980862 0.059670
vt 0.995689 0.059670
vt 0.995689 0.088561
vt 0.541916 0.274293
vt 0.556744 0.274293
vt 0.518467 0.249272
vt 0.518467 0.220380
vt 0.533294 0.220381
vt 0.533294 0.249272
vt 0.976551 0.034648
vt 0.961724 0.034648
vt 0.985173 0.113582
vt 1.000000 0.113582
vt 0.522778 0.195359
vt 0.537605 0.195359
vt 0.522778 0.274293
vt 0.537605 0.274293
vt 0.541916 0.195359
vt 0.556744 0.195359
vt 0.976551 0.113582
vt 0.961724 0.113582
vt 0.985173 0.034648
vt 1.000000 0.034648
vt 0.209826 0.038887
vt 0.352570 0.038887
vt 0.332709 0.060068
vt 0.229686 0.060068
vt 0.562396 0.309472
vt 0.562396 0.266409
vt 0.579192 0.267545
vt 0.579192 0.308336
vt 0.562396 0.093473
vt 0.562396 0.136535
vt 0.547561 0.135399
vt 0.547561 0.094609
vt 0.487049 0.056180
vt 0.476190 0.059283
vt 0.612784 0.266409
vt 0.612784 0.309472
vt 0.595988 0.308336
vt 0.595988 0.267545
vt 0.000000 0.136535
vt 0.000000 0.093473
vt 0.014834 0.094609
vt 0.014834 0.135399
vt 0.612784 0.309472
vt 0.612784 0.266409
vt 0.629581 0.267545
vt 0.629581 0.308336
vt 0.205851 0.034648
vt 0.356545 0.034648
vt 0.075347 0.173828
vt 0.086206 0.170725
vt 0.075347 0.056180
vt 0.086206 0.059283
vt 0.595988 0.266409
vt 0.595988 0.309472
vt 0.579192 0.308336
vt 0.579192 0.267545
vt 0.205851 0.195359
vt 0.209826 0.191120
vt 0.088955 0.100284
vt 0.140466 0.074788
vt 0.421929 0.074788
vt 0.473441 0.100284
vt 0.473441 0.129724
vt 0.421929 0.155220
vt 0.332709 0.169939
vt 0.229686 0.169939
vt 0.140466 0.155220
vt 0.088955 0.129724
vn 0.2588 0.0000 -0.9659
vn -0.0000 0.1183 -0.9930
vn 0.4965 0.1183 -0.8599
vn 0.5000 0.0000 -0.8660
vn 0.8599 0.1183 -0.4965
vn 0.7071 0.0000 -0.7071
vn 0.9659 0.0000 -0.2588
vn 0.9930 0.1183 -0.0000
vn 1.0000 0.0000 0.0000
vn 0.8599 0.1183 0.4965
vn 0.8660 0.0000 0.5000
vn 0.4965 0.1183 0.8599
vn 0.5000 0.0000 0.8660
vn 0.0000 0.1183 0.9930
vn 0.2588 0.0000 0.9659
vn -0.2588 0.0000 0.9659
vn -0.4965 0.1183 0.8599
vn -0.5000 0.0000 0.8660
vn -0.8599 0.1183 0.4965
vn -0.8660 0.0000 0.5000
vn -0.9930 0.1183 0.0000
vn -1.0000 0.0000 0.0000
vn -0.8599 0.1183 -0.4965
vn -0.8660 0.0000 -0.5000
vn -0.4965 0.1183 -0.8599
vn -0.7765 0.4428 -0.4483
vn -0.4483 0.4428 -0.7765
vn -0.7071 0.0000 -0.7071
vn -0.2588 0.0000 -0.9659
vn -0.3815 -0.6464 0.6608
vn -0.6608 -0.6464 0.3815
vn -0.5608 -0.7620 0.3238
vn -0.3238 -0.7620 0.5608
vn 0.7765 0.4428 0.4483
vn 0.8966 0.4428 -0.0000
vn 0.7591 0.6510 0.0000
vn 0.6574 0.6510 0.3795
vn 0.4483 0.4428 -0.7765
vn 0.7765 0.4428 -0.4483
vn -0.8966 0.4428 0.0000
vn -0.7765 0.4427 0.4483
vn -0.4483 0.4428 0.7765
vn 0.0000 0.4428 0.8966
vn 0.4483 0.4428 0.7765
vn -0.0000 0.4428 -0.8966
vn -0.0000 0.0000 1.0000
vn -0.6574 0.6510 -0.3795
vn -0.3795 0.6510 -0.6574
vn -0.0000 0.6510 -0.7591
vn 0.3795 0.6510 -0.6574
vn -0.3795 0.6510 0.6574
vn -0.6574 0.6510 0.3795
vn 0.3795 0.6510 0.6574
vn 0.6574 0.6510 -0.3795
vn -0.7591 0.6510 0.0000
vn 0.0000 0.6510 0.7591
vn 0.0020 1.0000 -0.0035
vn -0.0000 1.0000 -0.0040
vn 0.7071 0.0000 0.7071
vn 0.8660 0.0000 -0.5000
vn 0.9659 0.0000 0.2588
vn -0.0035 1.0000 -0.0020
vn -0.0040 1.0000 0.0000
vn 0.0020 1.0000 0.0035
vn 0.0035 1.0000 0.0020
vn -0.0020 1.0000 0.0035
vn -0.0000 1.0000 0.0040
vn 0.0035 1.0000 -0.0020
vn -0.0020 1.0000 -0.0035
vn -0.0035 1.0000 0.0020
vn 0.0040 1.0000 0.0000
vn 0.0000 1.0000 0.0000
vn -0.0000 0.0000 -1.0000
vn -0.7071 0.0000 0.7071
vn -0.9659 0.0000 0.2588
vn 0.5608 -0.7620 -0.3238
vn 0.6475 -0.7620 0.0000
vn 0.2821 -0.9594 0.0000
vn 0.2443 -0.9594 -0.1411
vn 0.0000 -0.6464 0.7630
vn 0.0000 -0.7620 0.6475
vn 0.3815 -0.6464 0.6608
vn 0.3238 -0.7620 0.5608
vn 0.6608 -0.6464 0.3815
vn 0.5608 -0.7620 0.3238
vn 0.7630 -0.6464 -0.0000
vn -0.3815 -0.6464 -0.6608
vn -0.0000 -0.6464 -0.7630
vn -0.0000 -0.7620 -0.6475
vn -0.3238 -0.7620 -0.5608
vn 0.3815 -0.6464 -0.6608
vn 0.3238 -0.7620 -0.5608
vn 0.6608 -0.6464 -0.3815
vn -0.6608 -0.6464 -0.3815
vn -0.5608 -0.7620 -0.3238
vn -0.7630 -0.6464 0.0000
vn -0.6475 -0.7620 0.0000
vn -0.0000 -0.9594 -0.2821
vn 0.1411 -0.9594 -0.2443
vn 0.2443 -0.9594 0.1411
vn 0.1411 -0.9594 0.2443
vn 0.0000 -0.9594 0.2821
vn -0.1411 -0.9594 0.2443
vn -0.2443 -0.9594 0.1411
vn -0.2821 -0.9594 0.0000
vn -0.2443 -0.9594 -0.1411
vn -0.1411 -0.9594 -0.2443
usemtl None
s 1
f 1/1/1 2/2/2 4/3/3 3/4/4
f 3/4/4 4/3/3 6/5/5 5/6/6
f 5/6/7 6/5/5 8/7/8 7/8/9
f 7/8/9 8/7/8 10/9/10 9/10/11
f 9/10/11 10/9/10 12/11/12 11/12/13
f 11/12/13 12/11/12 14/13/14 13/14/15
f 13/14/16 14/13/14 16/15/17 15/16/18
f 15/16/18 16/15/17 18/17/19 17/18/20
f 17/18/20 18/17/19 20/19/21 19/20/22
f 19/20/22 20/19/21 22/21/23 21/22/24
f 24/23/25 22/24/23 35/25/26 36/26/27
f 21/22/24 22/21/23 24/27/25 23/28/28
f 23/28/29 24/27/25 2/29/2 1/30/29
f 15/31/30 17/32/31 93/33/32 92/34/33
f 29/35/34 28/36/35 40/37/36 41/38/37
f 6/39/5 4/40/3 25/41/38 27/42/39
f 22/24/23 20/43/21 34/44/40 35/25/26
f 20/43/21 18/45/19 33/46/41 34/44/40
f 18/47/19 16/48/17 32/49/42 33/50/41
f 16/48/17 14/51/14 31/52/43 32/49/42
f 14/51/14 12/53/12 30/54/44 31/52/43
f 12/55/12 10/56/10 29/35/34 30/57/44
f 10/56/10 8/58/8 28/36/35 29/35/34
f 2/59/2 24/60/25 36/61/27 26/62/45
f 4/40/3 2/59/2 26/62/45 25/41/38
f 8/58/8 6/63/5 27/64/39 28/36/35
f 44/65/18 43/66/46 55/67/46 56/68/18
f 36/26/27 35/25/26 47/69/47 48/70/48
f 25/41/38 26/62/45 38/71/49 37/72/50
f 33/50/41 32/49/42 44/65/51 45/73/52
f 30/57/44 29/35/34 41/38/37 42/74/53
f 26/62/45 36/61/27 48/75/48 38/71/49
f 27/42/39 25/41/38 37/72/50 39/76/54
f 34/44/40 33/46/41 45/77/52 46/78/55
f 31/52/43 30/54/44 42/79/53 43/66/56
f 28/36/35 27/64/39 39/80/54 40/37/36
f 35/25/26 34/44/40 46/78/55 47/69/47
f 32/49/42 31/52/43 43/66/56 44/65/51
f 56/81/57 55/82/58 67/83/58 68/84/57
f 41/38/11 40/37/9 52/85/9 53/86/11
f 48/70/28 47/69/24 59/87/24 60/88/28
f 37/72/4 38/71/1 50/89/1 49/90/4
f 45/73/20 44/65/18 56/68/18 57/91/20
f 42/74/59 41/38/11 53/86/11 54/92/59
f 38/71/29 48/75/29 60/93/29 50/89/29
f 39/76/60 37/72/4 49/90/4 51/94/60
f 46/78/22 45/77/20 57/95/20 58/96/22
f 43/66/46 42/79/15 54/97/15 55/67/46
f 40/37/9 39/80/60 51/98/60 52/85/9
f 47/69/24 46/78/22 58/96/22 59/87/24
f 71/99/11 70/100/61 82/101/61 83/102/11
f 53/103/62 52/104/63 64/105/63 65/106/62
f 60/107/64 59/108/65 71/109/65 72/110/64
f 49/111/66 50/112/67 62/113/67 61/114/66
f 57/115/68 56/81/57 68/84/57 69/116/68
f 54/117/69 53/103/62 65/106/62 66/118/69
f 50/112/67 60/107/64 72/110/64 62/113/67
f 51/119/70 49/111/66 61/114/66 63/120/70
f 58/121/71 57/115/68 69/116/68 70/122/71
f 55/82/58 54/117/69 66/118/69 67/83/58
f 52/104/63 51/119/70 63/120/70 64/105/63
f 59/108/65 58/121/71 70/122/71 71/109/65
f 73/123/72 74/124/72 84/125/72 83/126/72 82/127/72 81/128/72 80/129/72 79/130/72 78/131/72 77/132/72 76/133/72 75/134/72
f 68/135/4 67/136/73 79/137/73 80/138/4
f 65/139/24 64/140/22 76/141/22 77/142/24
f 72/143/59 71/99/11 83/102/11 84/144/59
f 61/145/18 62/146/16 74/147/16 73/148/18
f 69/149/6 68/135/4 80/138/4 81/150/6
f 66/151/28 65/139/24 77/142/24 78/152/28
f 62/146/15 72/153/15 84/154/15 74/147/15
f 63/155/74 61/145/18 73/148/18 75/156/74
f 70/100/7 69/157/7 81/158/7 82/101/7
f 67/136/73 66/159/29 78/160/29 79/137/73
f 64/140/22 63/161/75 75/162/75 76/141/22
f 87/163/76 88/164/77 100/165/78 99/166/79
f 13/167/80 15/168/30 92/169/33 91/170/81
f 11/171/82 13/172/80 91/173/81 90/174/83
f 9/175/84 11/171/82 90/174/83 89/176/85
f 7/177/86 9/178/84 89/179/85 88/180/77
f 23/181/87 1/182/88 85/183/89 96/184/90
f 1/185/88 3/186/91 86/187/92 85/188/89
f 5/189/93 7/190/86 88/164/77 87/163/76
f 21/191/94 23/181/87 96/184/90 95/192/95
f 3/193/91 5/189/93 87/163/76 86/194/92
f 19/195/96 21/196/94 95/197/95 94/198/97
f 17/32/31 19/199/96 94/200/97 93/33/32
f 97/201/98 98/202/99 99/166/79 100/165/78 101/203/100 102/204/101 103/205/102 104/206/103 105/207/104 106/208/105 107/209/106 108/210/107
f 94/200/97 95/192/95 107/209/106 106/208/105
f 91/173/81 92/34/33 104/206/103 103/205/102
f 88/164/77 89/176/85 101/203/100 100/165/78
f 95/192/95 96/184/90 108/210/107 107/209/106
f 85/183/89 86/194/92 98/202/99 97/201/98
f 92/34/33 93/33/32 105/207/104 104/206/103
f 89/176/85 90/174/83 102/204/101 101/203/100
f 96/184/90 85/183/89 97/201/98 108/210/107
f 86/194/92 87/163/76 99/166/79 98/202/99
f 93/33/32 94/200/97 106/208/105 105/207/104
f 90/174/83 91/173/81 103/205/102 102/204/101
